<svg xmlns="http://www.w3.org/2000/svg"><symbol id="facebook-icon" viewBox="0 0 249.6 249.6"><path fill="#231f20" d="M0 89.3v92z"/><path fill="#99cccd" d="M249.6 0v249.6h-75a5.7 5.7 0 0 1-1.6-.6v-95.2l5.5-.3c7.2 0 14.3-.2 21.5.1 4.2.2 5.6-1.4 5.8-5.3s1.1-8.6 1.6-12.9c.8-6.5 1.6-13.1 2.5-20.5h-37.1V92.7c0-14.6 4.4-19 19.1-19.2h19.4c0-11.2.1-21.6-.1-32.1 0-.9-2.1-2.6-3.2-2.6-11.3-.5-22.7-1.5-33.9-.7-20.5 1.5-36 15-39.4 35.1-2 11.5-1.4 23.5-2 35.3-.1 2.1-.2 4.2-.3 6.5-9.6 0-18.6-.1-27.6.1-1.5 0-4.3 1.6-4.3 2.5-.3 11.8-.2 23.5-.2 36.2h32v96H0V0z"/></symbol><symbol id="hamburger-icon" viewBox="0 0 160 145.7"><path fill="none" stroke="#99cccd" stroke-linecap="round" stroke-miterlimit="10" stroke-width="18" d="M8.8 8.9h142M8.8 73.8h142m-142 62.9h142"/></symbol><symbol id="instagram-icon" viewBox="0 0 249.6 249.6"><path fill="#99cccd" d="M0 0v249.6h249.6V0zm216.8 160.8c-.1 24.3-14.2 44.6-37.2 52.3a59.5 59.5 0 0 1-17.9 2.8c-24.6.3-49.2.2-73.8.1-26.5 0-47.9-16.9-53.9-42.6a57.5 57.5 0 0 1-1.3-12.7c-.1-24.5-.1-49 0-73.5 0-26.5 16.8-47.8 42.6-54a54.7 54.7 0 0 1 12.2-1.3h74.6c26.2.1 47.8 17.3 53.6 42.8a60.7 60.7 0 0 1 1.3 12.7c.2 12.3.1 24.6.1 36.9s-.3 24.3-.3 36.5z"/><path fill="#99cccd" d="M200 86.7a39.5 39.5 0 0 0-.9-8.6c-4-17.8-18.7-29.5-37.2-29.6H87.5a39.6 39.6 0 0 0-8.6.9c-17.8 4-29.5 18.7-29.5 37.1q-.1 37.3 0 74.5a39.6 39.6 0 0 0 .9 8.5c4 17.7 18.6 29.4 36.9 29.6h74.3a42.5 42.5 0 0 0 9.1-.9c17.8-4 29.5-18.7 29.5-37.1q0-37.1-.1-74.4zm-75.6 87.5c-27.7-.2-50.2-23-50-50.6S97.5 73.4 125 73.7s50.2 23.2 49.8 50.7-22.9 50-50.4 49.8zM174 82a7.6 7.6 0 1 1 7.7-7.6A7.6 7.6 0 0 1 174 82z"/><path fill="#99cccd" d="M158.2 123.9a33.5 33.5 0 1 1-33.3-33.5 33.4 33.4 0 0 1 33.3 33.5z"/></symbol><symbol id="search-icon" viewBox="0 0 160 145.7"><path fill="none" stroke="#99cccd" stroke-linecap="round" stroke-miterlimit="10" stroke-width="17.24" d="M11.9 136.7l60.3-54.3"/><circle cx="106.7" cy="50.6" r="42.6" fill="none" stroke="#99cccd" stroke-linecap="round" stroke-miterlimit="10" stroke-width="14.38"/></symbol><symbol id="twitter-icon" viewBox="0 0 249.6 249.6"><path fill="#99cccd" d="M0 0v249.6h249.6V0zm225.5 72.4a75.8 75.8 0 0 1-15.8 16.2 4.4 4.4 0 0 0-1.9 4.1 108.8 108.8 0 0 1-7.8 43.4c-10 25.2-26.4 45-50.3 58.2-14.4 7.9-30 12-46.4 13.1a112.1 112.1 0 0 1-60.1-12.5c-2.5-1.3-4.8-2.7-7.2-4.1l-1.2-1c21.4 1.9 40.3-3.2 57.6-15.9-2.7-.4-4.8-.6-6.8-1.1-13.8-3.2-23.3-11.5-28.8-24.5-.8-2-.5-2.3 1.6-2a40.1 40.1 0 0 0 14.5-.7 53.9 53.9 0 0 1-10.5-4.3c-11.9-7-18.6-17.3-20-31.1-.4-4.2-.4-4.2 3.4-2.4a31.4 31.4 0 0 0 13.3 2.9l-2.5-1.9C42.8 97.3 38.5 76 46.9 60.2c1.1-2 1.2-2 2.8-.2C67 79.9 88.5 92.5 114.3 97.5a89 89 0 0 0 13 1.7c1.5.1 1.9-.2 1.6-1.8a39.2 39.2 0 0 1 6.2-29c13-19.4 40.1-23.5 58-8.5 3.1 2.6 5.7 3.3 9.5 2.1a106.2 106.2 0 0 0 16.8-6.9 3.1 3.1 0 0 1 2.5-.7c-2.9 8.7-8.4 15.4-16.3 21 7.7-.9 14.3-3.1 20.9-5.6.3 1.3-.5 1.9-1 2.6z"/></symbol><symbol id="x-icon" viewBox="0 0 160 145.7"><path fill="none" stroke="#99cccd" stroke-linecap="round" stroke-miterlimit="10" stroke-width="18" d="M8.8 8.9l142 127.8m-142 0l142-127.8"/></symbol></svg>