<svg id="Layer_1" data-name="Layer 1" xmlns="http://www.w3.org/2000/svg" width="16" height="16" viewBox="0 0 16 16"><title>logo-16</title><circle cx="8" cy="8" r="8" fill="#1aaaa0"/><circle cx="8" cy="8" r="7.2" fill="#1aaaa0"/><g id="_1G7R7J" data-name="1G7R7J"><path d="M6.6,13.3a2.5,2.5,0,0,1-.6-.7l-.2-.3-.6-.5-.9-.4L3.7,11h0l-.6-.5a1.8,1.8,0,0,1-.6-.9,1,1,0,0,1,.2-1L3,8.4,4,7.8l2-.5H7.8a1.4,1.4,0,0,1,.7.5l.3.6a4.4,4.4,0,0,1,.2,1,6.8,6.8,0,0,1,0,1.7,6.4,6.4,0,0,1-.3,1.2l-.3.6a1.1,1.1,0,0,1-.4.5H7.3l-.4-.2Z" fill="#fff" stroke="#1aaaa0" stroke-miterlimit="10" stroke-width="0.5"/><path d="M13,7.3l-.3.3-.9.6-.9.3h-.4L10,8.3a1.3,1.3,0,0,1-.4-1.1,1.7,1.7,0,0,1,.2-.6l.5-.7a3.4,3.4,0,0,1,1.6-1h1.1a1,1,0,0,1,.6.5,1,1,0,0,1,.1.4,1.7,1.7,0,0,1-.2.8l-.3.5Z" fill="#fff" stroke="#1aaaa0" stroke-miterlimit="10" stroke-width="0.5"/><path d="M9.8,5.7a2.5,2.5,0,0,1-.8.7l-.7.2H8.1l-.5-.4-.2-.3A2.1,2.1,0,0,1,7.2,5a3,3,0,0,1,.2-.9,3.4,3.4,0,0,1,.5-.9,2.5,2.5,0,0,1,.9-.8h1a1,1,0,0,1,.5.5,1.8,1.8,0,0,1,.2.8,3,3,0,0,1-.1.8,3.5,3.5,0,0,1-.4,1Z" fill="#fff" stroke="#1aaaa0" stroke-miterlimit="10" stroke-width="0.5"/><path d="M12.8,11.3l-.2.2a2.3,2.3,0,0,1-.9.6l-1,.2H10a1.4,1.4,0,0,1-.5-1.5l.2-.4A2.7,2.7,0,0,1,11.2,9a2.2,2.2,0,0,1,1.2,0l.5.3a1,1,0,0,1,.3.7,1.6,1.6,0,0,1-.1.7Z" fill="#fff" stroke="#1aaaa0" stroke-miterlimit="10" stroke-width="0.5"/><path d="M6.1,6.4l-.2.2L5.3,7H4.7a1.4,1.4,0,0,1-.5-.5,2.1,2.1,0,0,1-.3-.7A2.7,2.7,0,0,1,4,4.2a2.6,2.6,0,0,1,.5-.8,1.4,1.4,0,0,1,.9-.5H6l.4.3a1.9,1.9,0,0,1,.3.8,2.8,2.8,0,0,1-.2,1.6Z" fill="#fff" stroke="#1aaaa0" stroke-miterlimit="10" stroke-width="0.5"/></g></svg>