<svg id="Layer_1" data-name="Layer 1" xmlns="http://www.w3.org/2000/svg" width="32" height="32" viewBox="0 0 32 32"><title>logo-32</title><circle cx="16" cy="16" r="16" fill="#1aaaa0"/><circle cx="16" cy="16" r="14.4" fill="#1aaaa0"/><g id="_1G7R7J" data-name="1G7R7J"><path d="M12.9,27.4a5.5,5.5,0,0,1-1.4-1.6l-.4-.7A2.9,2.9,0,0,0,9.9,24L8,23.2l-1.3-.7h0l-1.3-1A4,4,0,0,1,4,19.6a2.1,2.1,0,0,1,.4-2.1l.7-.6a9.8,9.8,0,0,1,2.3-1.3,17.1,17.1,0,0,1,4.4-1.2,9.4,9.4,0,0,1,2.5,0l1.2.3A3,3,0,0,1,17,15.9a5.5,5.5,0,0,1,.7,1.3,9.5,9.5,0,0,1,.5,2.1,14.8,14.8,0,0,1,0,3.6,13.9,13.9,0,0,1-.5,2.7,6.5,6.5,0,0,1-.6,1.3,2.4,2.4,0,0,1-1,1,2.7,2.7,0,0,1-1.8.3l-.9-.4Z" fill="#fff" stroke="#1aaaa0" stroke-miterlimit="10" stroke-width="0.5"/><path d="M26.8,14.5l-.6.8a6.5,6.5,0,0,1-1.9,1.4,6.2,6.2,0,0,1-1.9.6h-1a2.3,2.3,0,0,1-1.2-.6,2.7,2.7,0,0,1-.9-2.3,3.6,3.6,0,0,1,.4-1.4,5.5,5.5,0,0,1,1-1.6,7.3,7.3,0,0,1,3.5-2.1h1.3l1,.2a2.1,2.1,0,0,1,1.2,1,2.2,2.2,0,0,1,.2.9,3.8,3.8,0,0,1-.3,1.8,5.2,5.2,0,0,1-.7,1.1Z" fill="#fff" stroke="#1aaaa0" stroke-miterlimit="10" stroke-width="0.5"/><path d="M19.9,11.1a5.5,5.5,0,0,1-1.7,1.5,3.5,3.5,0,0,1-1.4.4h-.7a3.3,3.3,0,0,1-1-.8l-.4-.7a4.6,4.6,0,0,1-.3-1.9,6.5,6.5,0,0,1,.4-2,7.3,7.3,0,0,1,1-1.8,5.4,5.4,0,0,1,2-1.7l1.3-.3,1,.2a2.2,2.2,0,0,1,1,1,3.8,3.8,0,0,1,.4,1.7,6.6,6.6,0,0,1-.3,1.8,7.6,7.6,0,0,1-1,2.1Z" fill="#fff" stroke="#1aaaa0" stroke-miterlimit="10" stroke-width="0.5"/><path d="M26.3,23.1l-.5.5a5,5,0,0,1-2,1.3,5.5,5.5,0,0,1-2.1.3L20.6,25l-.4-.2a3,3,0,0,1-1-3.3,3.4,3.4,0,0,1,.5-.9,5.9,5.9,0,0,1,3.1-2.3,4.7,4.7,0,0,1,2.6-.1,2.5,2.5,0,0,1,1.2.6,2.2,2.2,0,0,1,.7,1.5,3.5,3.5,0,0,1-.3,1.6A5.3,5.3,0,0,1,26.3,23.1Z" fill="#fff" stroke="#1aaaa0" stroke-miterlimit="10" stroke-width="0.5"/><path d="M11.9,12.6l-.4.5a2.8,2.8,0,0,1-1.4.8,1.8,1.8,0,0,1-1.3-.2,3,3,0,0,1-1.2-1.1A4.6,4.6,0,0,1,7,11.1a5.9,5.9,0,0,1,.4-3.2A5.6,5.6,0,0,1,8.5,6a3.1,3.1,0,0,1,1.9-1,2.2,2.2,0,0,1,2.1,1,4.2,4.2,0,0,1,.7,1.8,6.1,6.1,0,0,1-.5,3.5A5.9,5.9,0,0,1,11.9,12.6Z" fill="#fff" stroke="#1aaaa0" stroke-miterlimit="10" stroke-width="0.5"/></g></svg>