<svg id="Layer_1" data-name="Layer 1" xmlns="http://www.w3.org/2000/svg" width="256" height="256" viewBox="0 0 256 256"><title>logo-256</title><circle cx="128" cy="128" r="128" fill="#9bcccc"/><circle cx="128" cy="128" r="115.2" fill="#1aaaa0"/><g id="_1G7R7J" data-name="1G7R7J"><path d="M103.4,219.4a43.7,43.7,0,0,1-11.2-12.9l-3.5-5.8a23.3,23.3,0,0,0-9.8-8.7c-4.9-2.4-9.9-4.4-14.9-6.6a103.5,103.5,0,0,1-10.6-5.3l-.3-.2c-3.7-2.6-7.3-5.1-10.7-8.1A31.9,31.9,0,0,1,32,157c-1.9-6.3-.9-12,3.4-17a33.3,33.3,0,0,1,5.3-4.6,78.6,78.6,0,0,1,18.2-10.2A136.9,136.9,0,0,1,94,115.8a75.6,75.6,0,0,1,19.9,0,63.6,63.6,0,0,1,9.7,2.2,23.7,23.7,0,0,1,12.6,9.1,44.1,44.1,0,0,1,5.4,10.4,76.1,76.1,0,0,1,4,16.9,118.1,118.1,0,0,1,.1,28.6,110.9,110.9,0,0,1-4.3,21.5,51.9,51.9,0,0,1-4.8,10.8,19.1,19.1,0,0,1-7.7,7.8,22,22,0,0,1-14.3,2.1,19.1,19.1,0,0,1-7.4-3Z" fill="#fff"/><path d="M214.2,116.2a64,64,0,0,1-5,6,51.7,51.7,0,0,1-15.2,11,49.2,49.2,0,0,1-15,4.5,27.4,27.4,0,0,1-7.7-.1,18.2,18.2,0,0,1-9.4-4.5c-5.5-4.8-7.5-11.1-7.3-18.2a28.8,28.8,0,0,1,2.9-11,44.1,44.1,0,0,1,8.4-12.4,58.1,58.1,0,0,1,28-16.6,34.7,34.7,0,0,1,10.3-1,29.2,29.2,0,0,1,8,1.5,16.5,16.5,0,0,1,9.6,8.3,18,18,0,0,1,1.9,7.3,30,30,0,0,1-2.7,14.4,41.3,41.3,0,0,1-5.3,8.8Z" fill="#fff"/><path d="M159,88.6a44,44,0,0,1-13.4,11.8,27.8,27.8,0,0,1-11.5,3.6h-3.2a5.2,5.2,0,0,1-2.3-.6,26.3,26.3,0,0,1-8.4-6.4,18.4,18.4,0,0,1-3.2-5.2,36.9,36.9,0,0,1-2.4-15.4,52.3,52.3,0,0,1,3.5-16,58.3,58.3,0,0,1,8.1-14.8,43.1,43.1,0,0,1,16.3-13.6,26.3,26.3,0,0,1,10.3-2.6,16,16,0,0,1,7.8,1.5,17.8,17.8,0,0,1,8.2,8.3,30.3,30.3,0,0,1,3,13.5A52.5,52.5,0,0,1,169.7,67,61.2,61.2,0,0,1,162,84.2Z" fill="#fff"/><path d="M210.5,184.6c-1.2,1.4-2.4,2.9-3.7,4.3a40.4,40.4,0,0,1-16,10.6,44.3,44.3,0,0,1-16.8,2.6,21.6,21.6,0,0,1-8.8-2,17.9,17.9,0,0,1-3-1.8A23.7,23.7,0,0,1,154,172a27,27,0,0,1,3.8-7.5A47.1,47.1,0,0,1,183,146.2a38,38,0,0,1,20.7-.6,19.9,19.9,0,0,1,9.2,5,17.8,17.8,0,0,1,5.7,12,28.1,28.1,0,0,1-2.5,12.9A42.2,42.2,0,0,1,210.5,184.6Z" fill="#fff"/><path d="M95.1,100.9c-1.2,1.4-2.3,2.9-3.5,4.2a22.4,22.4,0,0,1-10.9,6.6,14.3,14.3,0,0,1-10.4-1.2,23.7,23.7,0,0,1-9.5-9.1,36.5,36.5,0,0,1-4.7-12.9A46.9,46.9,0,0,1,59,62.5a45.1,45.1,0,0,1,8.9-14.2,24.8,24.8,0,0,1,15.3-8.1,17.2,17.2,0,0,1,16.9,7.7,33.4,33.4,0,0,1,5.7,14.5,48.4,48.4,0,0,1-4.1,27.8A46.8,46.8,0,0,1,95.1,100.9Z" fill="#fff"/></g></svg>