<svg id="Layer_1" data-name="Layer 1" xmlns="http://www.w3.org/2000/svg" width="64" height="64" viewBox="0 0 64 64"><title>logo-64</title><circle cx="32" cy="32" r="32" fill="#9bcccc"/><circle cx="32" cy="32" r="28.8" fill="#1aaaa0"/><g id="_1G7R7J" data-name="1G7R7J"><path d="M25.9,54.8a10.9,10.9,0,0,1-2.8-3.2l-.9-1.4A5.8,5.8,0,0,0,19.7,48L16,46.4l-2.7-1.3h-.1l-2.7-2A8,8,0,0,1,8,39.2,4.3,4.3,0,0,1,8.9,35a8.3,8.3,0,0,1,1.3-1.2,19.6,19.6,0,0,1,4.6-2.6A34.2,34.2,0,0,1,23.5,29a18.9,18.9,0,0,1,5,0l2.4.6a5.9,5.9,0,0,1,3.2,2.3,11,11,0,0,1,1.4,2.6,19,19,0,0,1,1,4.2,29.5,29.5,0,0,1,0,7.1,27.7,27.7,0,0,1-1.1,5.4,13,13,0,0,1-1.2,2.7,4.8,4.8,0,0,1-1.9,1.9,5.5,5.5,0,0,1-3.6.5,4.8,4.8,0,0,1-1.8-.7Z" fill="#fff"/><path d="M53.5,29l-1.3,1.5a12.9,12.9,0,0,1-3.8,2.8,12.3,12.3,0,0,1-3.7,1.1H42.8a4.6,4.6,0,0,1-2.4-1.1,5.5,5.5,0,0,1-1.8-4.5,7.2,7.2,0,0,1,.7-2.7,11,11,0,0,1,2.1-3.1,14.5,14.5,0,0,1,7-4.1,8.7,8.7,0,0,1,2.6-.3l2,.4A4.1,4.1,0,0,1,55.4,21a4.5,4.5,0,0,1,.5,1.8,7.5,7.5,0,0,1-.7,3.6,10.3,10.3,0,0,1-1.3,2.2Z" fill="#fff"/><path d="M39.8,22.1a11,11,0,0,1-3.4,2.9,6.9,6.9,0,0,1-2.9.9H32.1a6.6,6.6,0,0,1-2.1-1.6,4.6,4.6,0,0,1-.8-1.3,9.2,9.2,0,0,1-.6-3.8,13.1,13.1,0,0,1,.9-4,14.6,14.6,0,0,1,2-3.7A10.8,10.8,0,0,1,35.6,8a6.6,6.6,0,0,1,2.6-.6,4,4,0,0,1,1.9.4,4.4,4.4,0,0,1,2,2.1,7.6,7.6,0,0,1,.7,3.4,13.1,13.1,0,0,1-.5,3.6,15.3,15.3,0,0,1-1.9,4.3Z" fill="#fff"/><path d="M52.6,46.1l-.9,1.1a10.1,10.1,0,0,1-4,2.7,11.1,11.1,0,0,1-4.2.7,5.4,5.4,0,0,1-2.2-.5l-.8-.5a5.9,5.9,0,0,1-2-6.6,6.7,6.7,0,0,1,.9-1.9,11.8,11.8,0,0,1,6.3-4.6,9.5,9.5,0,0,1,5.2-.2,5,5,0,0,1,2.3,1.2,4.4,4.4,0,0,1,1.4,3,7,7,0,0,1-.6,3.2A10.6,10.6,0,0,1,52.6,46.1Z" fill="#fff"/><path d="M23.8,25.2l-.9,1.1a5.6,5.6,0,0,1-2.7,1.6,3.6,3.6,0,0,1-2.6-.3,5.9,5.9,0,0,1-2.4-2.3A9.1,9.1,0,0,1,14,22.1a11.7,11.7,0,0,1,.7-6.5A11.3,11.3,0,0,1,17,12.1a6.2,6.2,0,0,1,3.8-2A4.3,4.3,0,0,1,25,12a8.4,8.4,0,0,1,1.4,3.6,12.1,12.1,0,0,1-1,6.9A11.7,11.7,0,0,1,23.8,25.2Z" fill="#fff"/></g></svg>